Coordinates
version=1
nRows=6
nColumns=36
inDegrees=yes

Units are S.I. units (second, meters, Newtons, ...)
If the header above contains a line with 'inDegrees', this indicates whether rotational values are in degrees (yes) or radians (no).

endheader
time	pelvis_tilt	pelvis_list	pelvis_rotation	pelvis_tx	pelvis_ty	pelvis_tz	hip_flexion_r	hip_adduction_r	hip_rotation_r	knee_angle_r	knee_angle_r_beta	ankle_angle_r	subtalar_angle_r	mtp_angle_r	hip_flexion_l	hip_adduction_l	hip_rotation_l	knee_angle_l	knee_angle_l_beta	ankle_angle_l	subtalar_angle_l	mtp_angle_l	lumbar_extension	lumbar_bending	lumbar_rotation	arm_flex_r	arm_add_r	arm_rot_r	elbow_flex_r	pro_sup_r	arm_flex_l	arm_add_l	arm_rot_l	elbow_flex_l	pro_sup_l
      4.43333330	    -36.68164667	      3.33601916	     -5.30454467	      0.85709601	      0.65688140	      0.00818374	     98.00140497	    -11.87271511	      1.81811604	     90.59161260	      1.58112191	     30.79084666	     -2.42021317	     -7.49999987	     98.26006681	    -13.87324907	      3.88884609	     88.40892985	      1.54302691	     27.65981951	     -7.39871186	     -7.49999987	    -32.30096781	     -0.73396337	      5.05513916	     74.15566657	    -19.68724213	     13.18913067	    119.71517541	     95.07059207	     79.79634169	    -20.68371684	     21.69139078	    123.82142828	     91.52224279
      4.45000000	    -37.02977996	      3.26480373	     -5.21139916	      0.85776993	      0.65082886	      0.00846993	     98.56103795	    -11.86619575	      1.82961434	     90.72637357	      1.58347394	     30.53431493	     -2.31500625	     -7.49999987	     98.89929286	    -13.68729129	      4.10495288	     88.57476532	      1.54592129	     27.57960357	     -7.47499752	     -7.49999987	    -32.54509526	     -0.66281711	      5.17672151	     73.71600760	    -19.81465440	     12.91583853	    119.96480585	     94.13249793	     79.17327615	    -20.48413684	     21.56743003	    124.47493673	     90.72745684
      4.46666670	    -37.30345109	      3.28570713	     -5.05267915	      0.85241782	      0.64995687	      0.00397860	     99.04886840	    -11.95577478	      1.95382647	     90.73167769	      1.58356651	     30.22406171	     -2.32602843	     -7.49999987	     99.39439724	    -13.38584097	      4.20208615	     88.65657348	      1.54734911	     27.46147425	     -7.57674673	     -7.49999987	    -32.93094645	     -0.42517906	      4.96977021	     74.34380005	    -20.17044594	     12.78134262	    119.51063217	     94.15461073	     79.33547440	    -20.13787630	     21.95033062	    124.31102418	     90.77189049
      4.48333330	    -37.12779500	      3.23408227	     -4.90288455	      0.85819782	      0.65101938	      0.00812233	     98.73785853	    -11.95665848	      2.06836693	     90.55312388	      1.58045016	     30.08152000	     -2.39291241	     -7.49999987	     99.09100463	    -13.06509483	      4.34171991	     88.50747325	      1.54474682	     27.49800203	     -7.73603776	     -7.49999987	    -33.31432077	     -0.44306907	      5.08455741	     73.89858459	    -20.24573530	     12.95479108	    119.49127813	     94.16757113	     78.60544570	    -20.06005664	     22.34027723	    124.33633448	     90.80813501
      4.50000000	    -36.79886244	      3.17055814	     -4.73885558	      0.86394395	      0.65301367	      0.00563148	     98.07890078	    -12.01904891	      2.20774841	     90.33412573	      1.57662792	     29.97409807	     -2.57402561	     -7.49999987	     98.40673665	    -12.66368884	      4.52190268	     88.31677288	      1.54141847	     27.70771522	     -7.90194413	     -7.49999987	    -33.54243145	     -0.23394302	      4.92441810	     73.12321929	    -20.48924636	     13.10058022	    119.78605098	     94.18479014	     77.32654096	    -19.72725846	     23.16538641	    124.72719820	     90.90303102
      4.51666670	    -36.54355859	      3.09138847	     -4.61725993	      0.86384347	      0.65303289	      0.00589200	     97.46332962	    -11.99512719	      2.33448236	     90.08635274	      1.57230347	     29.86903550	     -2.90115786	     -7.49999987	     97.76238817	    -12.37511043	      4.64792434	     88.11918536	      1.53796992	     28.00981759	     -7.93809713	     -7.49999987	    -33.54080338	     -0.44744693	      5.51207395	     72.05650987	    -21.72454361	     11.74917327	    121.29099688	     93.57973583	     77.33462953	    -18.49730165	     24.62149748	    124.36093126	     91.32304252
